<svg display="block" role="presentation" viewBox="0 0 566 192" xmlns="http://www.w3.org/2000/svg"><g d="M 109.5 82.5 C 134.201 82.5 154.5 102.798 154.5 127.5 L 154.5 191.88 L 144.5 191.88 L 144.5 127.5 C 144.5 108.321 128.678 92.5 109.5 92.5 C 90.321 92.5 74.5 108.321 74.5 127.5 L 74.5 191.88 L 64.5 191.88 L 64.5 127.5 C 64.5 102.798 84.798 82.5 109.5 82.5 Z M 34.5 191.879 L 24.5 191.879 L 24.5 93.21 C 28.13 92.203 31.528 90.494 34.5 88.179 Z M 109.568 0 C 138.399 0 164.055 14.649 179.452 36.85 L 193.058 36.85 C 207.455 36.855 219.128 48.532 219.128 62.93 C 219.128 73.841 210.29 82.68 199.378 82.68 C 190.904 82.68 184.048 75.808 184.048 67.35 C 184.048 60.598 189.527 55.12 196.278 55.12 L 198.959 55.12 L 198.959 65.12 L 196.278 65.12 C 195.047 65.122 194.05 66.119 194.048 67.35 C 194.048 70.294 196.434 72.68 199.378 72.68 C 201.964 72.681 204.445 71.655 206.274 69.826 C 208.103 67.997 209.129 65.516 209.128 62.93 C 209.128 54.051 201.927 46.85 193.048 46.85 C 182.84 46.85 174.558 55.131 174.558 65.34 L 174.558 124.19 C 174.564 124.549 174.568 124.909 174.568 125.27 L 174.568 191.85 L 164.568 191.85 L 164.568 143.47 L 164.558 143.47 L 164.558 124.312 C 164.039 94.587 139.407 70.27 109.568 70.27 C 79.504 70.27 54.725 94.956 54.57 124.987 L 54.57 143.47 L 54.568 143.47 L 54.568 191.85 L 44.568 191.85 L 44.568 125.27 L 44.57 124.936 L 44.57 65.34 C 44.57 55.131 36.288 46.85 26.08 46.85 C 17.201 46.85 10 54.051 10 62.93 C 9.999 65.516 11.025 67.997 12.854 69.826 C 14.683 71.655 17.164 72.681 19.75 72.68 C 22.694 72.68 25.08 70.294 25.08 67.35 C 25.077 66.12 24.08 65.123 22.85 65.12 L 20.17 65.12 L 20.17 55.12 L 22.85 55.12 C 29.6 55.12 35.08 60.598 35.08 67.35 C 35.08 75.808 28.224 82.68 19.75 82.68 C 8.838 82.68 0 73.841 0 62.93 C 0 48.532 11.672 36.856 26.068 36.85 L 39.684 36.85 C 55.081 14.649 80.737 0 109.568 0 Z M 47.752 46.85 C 52.161 52.001 54.579 58.56 54.57 65.34 L 54.57 90.79 C 66.12 72.507 86.516 60.27 109.568 60.27 C 132.614 60.27 153.006 72.5 164.558 90.778 L 164.558 65.34 C 164.549 58.56 166.968 52.001 171.376 46.85 Z M 109.568 10 C 86.695 10 66.067 20.476 52.26 36.85 L 166.875 36.85 C 153.068 20.476 132.441 10 109.568 10 Z M 184.5 88.196 C 187.472 90.51 190.87 92.219 194.5 93.224 L 194.5 191.89 L 184.5 191.89 Z M 264.602 105.763 L 264.602 64.413 L 255.034 64.413 L 255.034 54.503 L 264.688 54.503 L 264.688 44.508 C 264.688 40.92 265.627 38.271 267.507 36.563 C 269.443 34.854 272.12 34 275.538 34 L 290.061 34 L 290.061 43.91 L 277.161 43.91 L 277.161 54.503 L 289.036 54.503 L 289.036 64.413 L 277.332 64.413 L 277.332 105.763 Z M 312.751 106.703 C 306.771 106.703 302.072 105.25 298.655 102.346 C 295.295 99.441 293.615 95.596 293.615 90.812 C 293.615 85.8 295.323 81.927 298.74 79.193 C 302.215 76.46 307.198 75.093 313.691 75.093 L 329.325 75.093 L 329.325 73.043 C 329.325 66.777 325.68 63.645 318.39 63.645 C 312.239 63.645 308.508 65.866 307.198 70.308 L 294.469 70.308 C 295.494 64.841 298.057 60.683 302.158 57.835 C 306.315 54.931 311.726 53.478 318.39 53.478 C 325.908 53.478 331.632 55.187 335.562 58.604 C 339.492 61.964 341.457 66.891 341.457 73.384 L 341.457 93.033 L 347.522 93.033 L 347.522 105.763 L 334.451 105.763 L 334.451 97.561 L 330.863 97.561 C 329.097 100.466 326.705 102.716 323.687 104.311 C 320.725 105.905 317.08 106.703 312.751 106.703 Z M 314.631 96.878 C 317.422 96.878 319.928 96.365 322.149 95.34 C 324.37 94.258 326.107 92.834 327.36 91.069 C 328.67 89.246 329.325 87.224 329.325 85.003 L 329.325 83.807 L 314.375 83.807 C 308.622 83.807 305.746 85.943 305.746 90.214 C 305.746 92.322 306.515 93.973 308.053 95.169 C 309.647 96.308 311.84 96.878 314.631 96.878 Z M 358.787 105.763 L 358.787 67.233 L 352.465 67.233 L 352.465 54.503 L 365.451 54.503 L 365.451 64.413 L 369.039 64.413 C 370.463 60.996 372.656 58.405 375.618 56.639 C 378.579 54.874 381.968 53.991 385.784 53.991 L 390.056 53.991 L 390.056 64.926 L 385.186 64.926 C 380.573 64.926 377.098 66.265 374.763 68.942 C 372.485 71.618 371.346 75.178 371.346 79.621 L 371.346 105.763 Z M 419.184 106.788 C 413.887 106.788 409.245 105.706 405.259 103.542 C 401.272 101.32 398.168 98.216 395.946 94.23 C 393.725 90.243 392.615 85.544 392.615 80.133 C 392.615 74.723 393.697 70.023 395.861 66.037 C 398.082 62.05 401.186 58.974 405.173 56.81 C 409.16 54.589 413.83 53.478 419.184 53.478 C 425.791 53.478 431.259 55.158 435.587 58.518 C 439.916 61.822 442.65 66.435 443.789 72.358 L 431.059 72.358 C 430.205 69.796 428.781 67.859 426.788 66.549 C 424.794 65.239 422.26 64.584 419.184 64.584 C 414.969 64.584 411.609 65.951 409.103 68.685 C 406.597 71.362 405.344 75.178 405.344 80.133 C 405.344 85.088 406.597 88.933 409.103 91.667 C 411.609 94.343 414.969 95.682 419.184 95.682 C 425.791 95.682 429.835 92.834 431.315 87.139 L 444.13 87.139 C 443.048 93.347 440.343 98.188 436.014 101.662 C 431.686 105.079 426.076 106.788 419.184 106.788 Z M 475.432 106.788 C 469.907 106.788 465.095 105.706 460.994 103.542 C 456.95 101.32 453.789 98.216 451.511 94.23 C 449.29 90.243 448.179 85.544 448.179 80.133 C 448.179 74.665 449.29 69.938 451.511 65.951 C 453.789 61.965 456.979 58.889 461.079 56.725 C 465.18 54.56 469.964 53.478 475.432 53.478 C 481.014 53.478 485.798 54.56 489.785 56.725 C 493.828 58.889 496.961 61.965 499.182 65.951 C 501.403 69.938 502.514 74.666 502.514 80.133 C 502.514 85.544 501.403 90.271 499.182 94.315 C 496.961 98.302 493.828 101.377 489.785 103.542 C 485.741 105.706 480.957 106.788 475.432 106.788 Z M 475.432 95.682 C 479.988 95.682 483.52 94.315 486.026 91.581 C 488.532 88.79 489.785 84.974 489.785 80.133 C 489.785 75.235 488.532 71.419 486.026 68.685 C 483.52 65.951 479.988 64.585 475.432 64.585 C 470.819 64.585 467.23 65.951 464.667 68.685 C 462.161 71.419 460.908 75.207 460.908 80.048 C 460.908 84.946 462.161 88.79 464.667 91.581 C 467.23 94.315 470.819 95.682 475.432 95.682 Z M 514.915 105.763 L 514.915 67.233 L 508.593 67.233 L 508.593 54.503 L 521.664 54.503 L 521.664 62.705 L 525.252 62.705 C 527.189 59.8 529.666 57.551 532.685 55.955 C 535.704 54.361 539.406 53.564 543.791 53.564 C 550.797 53.564 556.207 55.5 560.023 59.374 C 563.896 63.246 565.833 68.4 565.833 74.836 L 565.833 105.763 L 553.103 105.763 L 553.103 77.228 C 553.103 73.185 552.021 70.109 549.857 68.002 C 547.75 65.894 544.589 64.841 540.374 64.841 C 536.273 64.841 533.112 65.894 530.891 68.001 C 528.727 70.109 527.644 73.185 527.644 77.228 L 527.644 105.763 Z M 264.438 170.171 L 264.438 135.571 L 280.585 135.571 C 284.059 135.571 286.793 136.397 288.787 138.049 C 290.78 139.672 291.777 142.007 291.777 145.054 C 291.777 146.535 291.449 147.887 290.794 149.112 C 290.168 150.337 289.143 151.376 287.719 152.23 L 287.719 152.444 C 289 152.444 289.997 152.786 290.709 153.469 C 291.421 154.124 291.777 155.064 291.777 156.288 L 291.777 170.171 L 287.676 170.171 L 287.676 155.648 L 268.539 155.648 L 268.539 170.171 Z M 268.539 152.316 L 280.158 152.316 C 282.522 152.316 284.358 151.746 285.668 150.607 C 287.007 149.439 287.676 147.788 287.676 145.652 C 287.676 143.516 287.007 141.879 285.668 140.74 C 284.358 139.572 282.522 138.988 280.158 138.988 L 268.539 138.988 Z M 366.346 170.684 C 362.872 170.684 359.839 169.957 357.247 168.505 C 354.656 167.024 352.648 164.945 351.224 162.269 C 349.801 159.592 349.089 156.459 349.089 152.871 C 349.089 149.254 349.801 146.122 351.224 143.473 C 352.648 140.797 354.656 138.732 357.247 137.28 C 359.839 135.799 362.872 135.058 366.346 135.058 C 369.849 135.058 372.896 135.799 375.487 137.28 C 378.079 138.732 380.072 140.797 381.467 143.473 C 382.891 146.122 383.603 149.254 383.603 152.871 C 383.603 156.459 382.891 159.592 381.467 162.269 C 380.044 164.945 378.036 167.024 375.445 168.505 C 372.882 169.957 369.849 170.684 366.346 170.684 Z M 366.346 167.096 C 370.39 167.096 373.579 165.828 375.914 163.294 C 378.25 160.759 379.417 157.285 379.417 152.871 C 379.417 148.429 378.25 144.954 375.914 142.448 C 373.608 139.914 370.418 138.647 366.346 138.647 C 362.302 138.647 359.113 139.914 356.778 142.448 C 354.442 144.954 353.275 148.429 353.275 152.871 C 353.275 157.314 354.442 160.802 356.778 163.336 C 359.113 165.843 362.302 167.096 366.346 167.096 Z M 441.694 170.171 L 441.694 135.571 L 447.888 135.571 L 460.446 164.618 L 460.617 164.618 L 473.219 135.571 L 479.37 135.571 L 479.37 170.171 L 475.269 170.171 L 475.269 139.885 L 475.098 139.885 L 462.027 170.171 L 458.78 170.171 L 445.709 139.843 L 445.538 139.843 L 445.538 170.171 Z M 563.258 170.171 L 539.507 170.171 L 539.507 135.571 L 563.258 135.571 L 563.258 139.074 L 543.608 139.074 L 543.608 150.522 L 562.361 150.522 L 562.361 153.939 L 543.608 153.939 L 543.608 166.668 L 563.258 166.668 Z" fill="transparent" height="191.88999914550783px" id="AOmreWvFF" width="565.8329870605468px"><path d="M 85 0 C 109.701 0 130 20.298 130 45 L 130 109.38 L 120 109.38 L 120 45 C 120 25.821 104.178 10 85 10 C 65.821 10 50 25.821 50 45 L 50 109.38 L 40 109.38 L 40 45 C 40 20.298 60.298 0 85 0 Z M 10 109.379 L 0 109.379 L 0 10.71 C 3.63 9.703 7.028 7.994 10 5.679 Z" fill="rgb(255, 255, 255)" height="109.38000000000001px" id="oqDQRhBUK" transform="translate(24.5 82.5)" width="130px"/><path d="M 109.568 0 C 138.399 0 164.055 14.649 179.452 36.85 L 193.058 36.85 C 207.455 36.855 219.128 48.532 219.128 62.93 C 219.128 73.841 210.29 82.68 199.378 82.68 C 190.904 82.68 184.048 75.808 184.048 67.35 C 184.048 60.598 189.527 55.12 196.278 55.12 L 198.959 55.12 L 198.959 65.12 L 196.278 65.12 C 195.047 65.122 194.05 66.119 194.048 67.35 C 194.048 70.294 196.434 72.68 199.378 72.68 C 201.964 72.681 204.445 71.655 206.274 69.826 C 208.103 67.997 209.129 65.516 209.128 62.93 C 209.128 54.051 201.927 46.85 193.048 46.85 C 182.84 46.85 174.558 55.131 174.558 65.34 L 174.558 124.19 C 174.564 124.549 174.568 124.909 174.568 125.27 L 174.568 191.85 L 164.568 191.85 L 164.568 143.47 L 164.558 143.47 L 164.558 124.312 C 164.039 94.587 139.407 70.27 109.568 70.27 C 79.504 70.27 54.725 94.956 54.57 124.987 L 54.57 143.47 L 54.568 143.47 L 54.568 191.85 L 44.568 191.85 L 44.568 125.27 L 44.57 124.936 L 44.57 65.34 C 44.57 55.131 36.288 46.85 26.08 46.85 C 17.201 46.85 10 54.051 10 62.93 C 9.999 65.516 11.025 67.997 12.854 69.826 C 14.683 71.655 17.164 72.681 19.75 72.68 C 22.694 72.68 25.08 70.294 25.08 67.35 C 25.077 66.12 24.08 65.123 22.85 65.12 L 20.17 65.12 L 20.17 55.12 L 22.85 55.12 C 29.6 55.12 35.08 60.598 35.08 67.35 C 35.08 75.808 28.224 82.68 19.75 82.68 C 8.838 82.68 0 73.841 0 62.93 C 0 48.532 11.672 36.856 26.068 36.85 L 39.684 36.85 C 55.081 14.649 80.737 0 109.568 0 Z M 47.752 46.85 C 52.161 52.001 54.579 58.56 54.57 65.34 L 54.57 90.79 C 66.12 72.507 86.516 60.27 109.568 60.27 C 132.614 60.27 153.006 72.5 164.558 90.778 L 164.558 65.34 C 164.549 58.56 166.968 52.001 171.376 46.85 Z M 109.568 10 C 86.695 10 66.067 20.476 52.26 36.85 L 166.875 36.85 C 153.068 20.476 132.441 10 109.568 10 Z" fill="rgb(255, 255, 255)" height="191.85000000000002px" id="H4N0WLT9x" width="219.128px"/><path d="M 0 54.196 C 2.972 56.51 6.37 58.219 10 59.224 L 10 157.89 L 0 157.89 Z M 80.102 71.763 L 80.102 30.413 L 70.534 30.413 L 70.534 20.503 L 80.188 20.503 L 80.188 10.508 C 80.188 6.92 81.127 4.271 83.007 2.563 C 84.943 0.854 87.62 0 91.038 0 L 105.561 0 L 105.561 9.91 L 92.661 9.91 L 92.661 20.503 L 104.536 20.503 L 104.536 30.413 L 92.832 30.413 L 92.832 71.763 Z M 128.251 72.703 C 122.271 72.703 117.572 71.25 114.155 68.346 C 110.795 65.441 109.115 61.596 109.115 56.812 C 109.115 51.8 110.823 47.927 114.24 45.193 C 117.715 42.46 122.698 41.093 129.191 41.093 L 144.825 41.093 L 144.825 39.043 C 144.825 32.777 141.18 29.645 133.89 29.645 C 127.739 29.645 124.008 31.866 122.698 36.308 L 109.969 36.308 C 110.994 30.841 113.557 26.683 117.658 23.835 C 121.815 20.931 127.226 19.478 133.89 19.478 C 141.408 19.478 147.132 21.187 151.062 24.604 C 154.992 27.964 156.957 32.891 156.957 39.384 L 156.957 59.033 L 163.022 59.033 L 163.022 71.763 L 149.951 71.763 L 149.951 63.561 L 146.363 63.561 C 144.597 66.466 142.205 68.716 139.187 70.311 C 136.225 71.905 132.58 72.703 128.251 72.703 Z M 130.131 62.878 C 132.922 62.878 135.428 62.365 137.649 61.34 C 139.87 60.258 141.607 58.834 142.86 57.069 C 144.17 55.246 144.825 53.224 144.825 51.003 L 144.825 49.807 L 129.875 49.807 C 124.122 49.807 121.246 51.943 121.246 56.214 C 121.246 58.322 122.015 59.973 123.553 61.169 C 125.147 62.308 127.34 62.878 130.131 62.878 Z M 174.287 71.763 L 174.287 33.233 L 167.965 33.233 L 167.965 20.503 L 180.951 20.503 L 180.951 30.413 L 184.539 30.413 C 185.963 26.996 188.156 24.405 191.118 22.639 C 194.079 20.874 197.468 19.991 201.284 19.991 L 205.556 19.991 L 205.556 30.926 L 200.686 30.926 C 196.073 30.926 192.598 32.265 190.263 34.942 C 187.985 37.618 186.846 41.178 186.846 45.621 L 186.846 71.763 Z M 234.684 72.788 C 229.387 72.788 224.745 71.706 220.759 69.542 C 216.772 67.32 213.668 64.216 211.446 60.23 C 209.225 56.243 208.115 51.544 208.115 46.133 C 208.115 40.723 209.197 36.023 211.361 32.037 C 213.582 28.05 216.686 24.974 220.673 22.81 C 224.66 20.589 229.33 19.478 234.684 19.478 C 241.291 19.478 246.759 21.158 251.087 24.518 C 255.416 27.822 258.15 32.435 259.289 38.358 L 246.559 38.358 C 245.705 35.796 244.281 33.859 242.288 32.549 C 240.294 31.239 237.76 30.584 234.684 30.584 C 230.469 30.584 227.109 31.951 224.603 34.685 C 222.097 37.362 220.844 41.178 220.844 46.133 C 220.844 51.088 222.097 54.933 224.603 57.667 C 227.109 60.343 230.469 61.682 234.684 61.682 C 241.291 61.682 245.335 58.834 246.815 53.139 L 259.63 53.139 C 258.548 59.347 255.843 64.188 251.514 67.662 C 247.186 71.079 241.576 72.788 234.684 72.788 Z M 290.932 72.788 C 285.407 72.788 280.595 71.706 276.494 69.542 C 272.45 67.32 269.289 64.216 267.011 60.23 C 264.79 56.243 263.679 51.544 263.679 46.133 C 263.679 40.665 264.79 35.938 267.011 31.951 C 269.289 27.965 272.479 24.889 276.579 22.725 C 280.68 20.56 285.464 19.478 290.932 19.478 C 296.514 19.478 301.298 20.56 305.285 22.725 C 309.328 24.889 312.461 27.965 314.682 31.951 C 316.903 35.938 318.014 40.666 318.014 46.133 C 318.014 51.544 316.903 56.271 314.682 60.315 C 312.461 64.302 309.328 67.377 305.285 69.542 C 301.241 71.706 296.457 72.788 290.932 72.788 Z M 290.932 61.682 C 295.488 61.682 299.02 60.315 301.526 57.581 C 304.032 54.79 305.285 50.974 305.285 46.133 C 305.285 41.235 304.032 37.419 301.526 34.685 C 299.02 31.951 295.488 30.585 290.932 30.585 C 286.319 30.585 282.73 31.951 280.167 34.685 C 277.661 37.419 276.408 41.207 276.408 46.048 C 276.408 50.946 277.661 54.79 280.167 57.581 C 282.73 60.315 286.319 61.682 290.932 61.682 Z M 330.415 71.763 L 330.415 33.233 L 324.093 33.233 L 324.093 20.503 L 337.164 20.503 L 337.164 28.705 L 340.752 28.705 C 342.689 25.8 345.166 23.551 348.185 21.955 C 351.204 20.361 354.906 19.564 359.291 19.564 C 366.297 19.564 371.707 21.5 375.523 25.374 C 379.396 29.246 381.333 34.4 381.333 40.836 L 381.333 71.763 L 368.603 71.763 L 368.603 43.228 C 368.603 39.185 367.521 36.109 365.357 34.002 C 363.25 31.894 360.089 30.841 355.874 30.841 C 351.773 30.841 348.612 31.894 346.391 34.001 C 344.227 36.109 343.144 39.185 343.144 43.228 L 343.144 71.763 Z M 79.938 136.171 L 79.938 101.571 L 96.085 101.571 C 99.559 101.571 102.293 102.397 104.287 104.049 C 106.28 105.672 107.277 108.007 107.277 111.054 C 107.277 112.535 106.949 113.887 106.294 115.112 C 105.668 116.337 104.643 117.376 103.219 118.23 L 103.219 118.444 C 104.5 118.444 105.497 118.786 106.209 119.469 C 106.921 120.124 107.277 121.064 107.277 122.288 L 107.277 136.171 L 103.176 136.171 L 103.176 121.648 L 84.039 121.648 L 84.039 136.171 Z M 84.039 118.316 L 95.658 118.316 C 98.022 118.316 99.858 117.746 101.168 116.607 C 102.507 115.439 103.176 113.788 103.176 111.652 C 103.176 109.516 102.507 107.879 101.168 106.74 C 99.858 105.572 98.022 104.988 95.658 104.988 L 84.039 104.988 Z M 181.846 136.684 C 178.372 136.684 175.339 135.957 172.747 134.505 C 170.156 133.024 168.148 130.945 166.724 128.269 C 165.301 125.592 164.589 122.459 164.589 118.871 C 164.589 115.254 165.301 112.122 166.724 109.473 C 168.148 106.797 170.156 104.732 172.747 103.28 C 175.339 101.799 178.372 101.058 181.846 101.058 C 185.349 101.058 188.396 101.799 190.987 103.28 C 193.579 104.732 195.572 106.797 196.967 109.473 C 198.391 112.122 199.103 115.254 199.103 118.871 C 199.103 122.459 198.391 125.592 196.967 128.269 C 195.544 130.945 193.536 133.024 190.945 134.505 C 188.382 135.957 185.349 136.684 181.846 136.684 Z M 181.846 133.096 C 185.89 133.096 189.079 131.828 191.414 129.294 C 193.75 126.759 194.917 123.285 194.917 118.871 C 194.917 114.429 193.75 110.954 191.414 108.448 C 189.108 105.914 185.918 104.647 181.846 104.647 C 177.802 104.647 174.613 105.914 172.278 108.448 C 169.942 110.954 168.775 114.429 168.775 118.871 C 168.775 123.314 169.942 126.802 172.278 129.336 C 174.613 131.843 177.802 133.096 181.846 133.096 Z M 257.194 136.171 L 257.194 101.571 L 263.388 101.571 L 275.946 130.618 L 276.117 130.618 L 288.719 101.571 L 294.87 101.571 L 294.87 136.171 L 290.769 136.171 L 290.769 105.885 L 290.598 105.885 L 277.527 136.171 L 274.28 136.171 L 261.209 105.843 L 261.038 105.843 L 261.038 136.171 Z M 378.758 136.171 L 355.007 136.171 L 355.007 101.571 L 378.758 101.571 L 378.758 105.074 L 359.108 105.074 L 359.108 116.522 L 377.861 116.522 L 377.861 119.939 L 359.108 119.939 L 359.108 132.668 L 378.758 132.668 Z" fill="rgb(255, 255, 255)" height="157.88999914550783px" id="XFaES2xUj" transform="translate(184.5 34)" width="381.33298706054677px"/></g></svg>